<?xml version="1.0" encoding="UTF-8"?>
<svg xmlns="http://www.w3.org/2000/svg" xmlns:xlink="http://www.w3.org/1999/xlink" width="2000" height="2000" viewBox="0 0 2000 2000">

<path fill-rule="evenodd" fill="rgb(95.701599%, 96.875%, 98.046875%)" fill-opacity="1" d="M 1908.238281 1915.15625 L 1889.179688 1915.15625 C 1888.300781 1915.15625 1887.589844 1915.871094 1887.589844 1916.746094 L 1887.589844 1935.800781 C 1887.589844 1936.679688 1888.300781 1937.394531 1889.179688 1937.394531 L 1908.238281 1937.394531 C 1909.109375 1937.394531 1909.828125 1936.679688 1909.828125 1935.800781 L 1909.828125 1916.746094 C 1909.828125 1915.871094 1909.109375 1915.15625 1908.238281 1915.15625 "/>
<path fill-rule="evenodd" fill="rgb(95.701599%, 96.875%, 98.046875%)" fill-opacity="1" d="M 1865.28125 1916.171875 L 1847.089844 1916.171875 C 1846.261719 1916.171875 1845.578125 1916.855469 1845.578125 1917.691406 L 1845.578125 1935.875 C 1845.578125 1936.710938 1846.261719 1937.394531 1847.089844 1937.394531 L 1865.28125 1937.394531 C 1866.109375 1937.394531 1866.800781 1936.710938 1866.800781 1935.875 L 1866.800781 1917.691406 C 1866.800781 1916.855469 1866.109375 1916.171875 1865.28125 1916.171875 "/>
<path fill-rule="evenodd" fill="rgb(95.701599%, 96.875%, 98.046875%)" fill-opacity="1" d="M 1822.320312 1917.1875 L 1805.011719 1917.1875 C 1804.210938 1917.1875 1803.558594 1917.839844 1803.558594 1918.636719 L 1803.558594 1935.949219 C 1803.558594 1936.742188 1804.210938 1937.394531 1805.011719 1937.394531 L 1822.320312 1937.394531 C 1823.121094 1937.394531 1823.769531 1936.742188 1823.769531 1935.949219 L 1823.769531 1918.636719 C 1823.769531 1917.839844 1823.121094 1917.1875 1822.320312 1917.1875 "/>
<path fill-rule="evenodd" fill="rgb(95.701599%, 96.875%, 98.046875%)" fill-opacity="1" d="M 1779.371094 1918.207031 L 1762.929688 1918.207031 C 1762.171875 1918.207031 1761.550781 1918.824219 1761.550781 1919.582031 L 1761.550781 1936.019531 C 1761.550781 1936.777344 1762.171875 1937.394531 1762.929688 1937.394531 L 1779.371094 1937.394531 C 1780.121094 1937.394531 1780.738281 1936.777344 1780.738281 1936.019531 L 1780.738281 1919.582031 C 1780.738281 1918.824219 1780.121094 1918.207031 1779.371094 1918.207031 "/>
<path fill-rule="evenodd" fill="rgb(95.701599%, 96.875%, 98.046875%)" fill-opacity="1" d="M 1736.410156 1919.222656 L 1720.839844 1919.222656 C 1720.128906 1919.222656 1719.539062 1919.808594 1719.539062 1920.523438 L 1719.539062 1936.09375 C 1719.539062 1936.808594 1720.128906 1937.394531 1720.839844 1937.394531 L 1736.410156 1937.394531 C 1737.128906 1937.394531 1737.710938 1936.808594 1737.710938 1936.09375 L 1737.710938 1920.523438 C 1737.710938 1919.808594 1737.128906 1919.222656 1736.410156 1919.222656 "/>
<path fill-rule="evenodd" fill="rgb(95.701599%, 96.875%, 98.046875%)" fill-opacity="1" d="M 1693.460938 1920.238281 L 1678.761719 1920.238281 C 1678.078125 1920.238281 1677.53125 1920.792969 1677.53125 1921.46875 L 1677.53125 1936.167969 C 1677.53125 1936.84375 1678.078125 1937.394531 1678.761719 1937.394531 L 1693.460938 1937.394531 C 1694.128906 1937.394531 1694.679688 1936.84375 1694.679688 1936.167969 L 1694.679688 1921.46875 C 1694.679688 1920.792969 1694.128906 1920.238281 1693.460938 1920.238281 "/>
<path fill-rule="evenodd" fill="rgb(95.701599%, 96.875%, 98.046875%)" fill-opacity="1" d="M 1650.5 1921.257812 L 1636.671875 1921.257812 C 1636.039062 1921.257812 1635.519531 1921.777344 1635.519531 1922.414062 L 1635.519531 1936.238281 C 1635.519531 1936.875 1636.039062 1937.394531 1636.671875 1937.394531 L 1650.5 1937.394531 C 1651.140625 1937.394531 1651.648438 1936.875 1651.648438 1936.238281 L 1651.648438 1922.414062 C 1651.648438 1921.777344 1651.140625 1921.257812 1650.5 1921.257812 "/>
<path fill-rule="evenodd" fill="rgb(95.701599%, 96.875%, 98.046875%)" fill-opacity="1" d="M 1607.539062 1922.273438 L 1594.589844 1922.273438 C 1593.988281 1922.273438 1593.511719 1922.761719 1593.511719 1923.355469 L 1593.511719 1936.3125 C 1593.511719 1936.90625 1593.988281 1937.394531 1594.589844 1937.394531 L 1607.539062 1937.394531 C 1608.140625 1937.394531 1608.628906 1936.90625 1608.628906 1936.3125 L 1608.628906 1923.355469 C 1608.628906 1922.761719 1608.140625 1922.273438 1607.539062 1922.273438 "/>
<path fill-rule="evenodd" fill="rgb(95.701599%, 96.875%, 98.046875%)" fill-opacity="1" d="M 1564.589844 1923.292969 L 1552.5 1923.292969 C 1551.949219 1923.292969 1551.488281 1923.746094 1551.488281 1924.300781 L 1551.488281 1936.386719 C 1551.488281 1936.941406 1551.949219 1937.394531 1552.5 1937.394531 L 1564.589844 1937.394531 C 1565.140625 1937.394531 1565.601562 1936.941406 1565.601562 1936.386719 L 1565.601562 1924.300781 C 1565.601562 1923.746094 1565.140625 1923.292969 1564.589844 1923.292969 "/>
<path fill-rule="nonzero" fill="rgb(78.514099%, 80.076599%, 90.234375%)" fill-opacity="1" d="M 1038.710938 580.511719 C 1131.710938 581.050781 1220.351562 608.859375 1295.230469 657.820312 C 1373.828125 709.210938 1437.171875 783.820312 1474.371094 874.53125 C 1474.890625 876.160156 1475.53125 877.730469 1476.269531 879.25 C 1524.28125 999.949219 1519.25 1128.714844 1472.179688 1239.601562 C 1425.078125 1350.578125 1335.941406 1443.667969 1215.808594 1492.910156 C 1214.199219 1493.4375 1212.640625 1494.066406 1211.128906 1494.800781 C 1090.441406 1542.8125 961.667969 1537.785156 850.777344 1490.714844 C 739.730469 1443.578125 646.585938 1354.351562 597.367188 1234.097656 L 597.378906 1234.09375 C 597.136719 1233.371094 596.871094 1232.660156 596.59375 1231.960938 L 596.53125 1231.808594 L 596.265625 1231.175781 L 596.179688 1230.980469 L 595.863281 1230.273438 L 595.820312 1230.179688 L 595.578125 1229.664062 C 559.847656 1139.820312 553.21875 1043.546875 573.039062 953.011719 C 592.429688 864.449219 637.160156 781.46875 704.726562 715.46875 L 632.648438 684.878906 C 566.246094 757.28125 521.808594 844.789062 501.496094 937.558594 C 478.660156 1041.878906 486.371094 1152.941406 527.695312 1256.714844 L 527.867188 1257.230469 L 527.878906 1257.261719 C 528.117188 1257.980469 528.378906 1258.695312 528.664062 1259.40625 L 528.753906 1259.371094 C 585.378906 1399.4375 693.355469 1503.292969 822.160156 1557.96875 C 950.234375 1612.332031 1098.878906 1618.140625 1238.121094 1562.699219 C 1239.039062 1562.410156 1239.960938 1562.082031 1240.871094 1561.714844 L 1240.828125 1561.625 C 1380.910156 1505.003906 1484.761719 1397.027344 1539.441406 1268.21875 C 1593.800781 1140.144531 1599.609375 991.488281 1544.171875 852.25 C 1543.878906 851.328125 1543.550781 850.421875 1543.179688 849.511719 L 1543.089844 849.550781 C 1500.199219 743.429688 1426.648438 656.308594 1335.289062 596.578125 C 1257.078125 545.441406 1165.71875 514.328125 1069.28125 508.488281 L 1038.710938 580.511719 "/>
<path fill-rule="nonzero" fill="rgb(78.514099%, 80.076599%, 90.234375%)" fill-opacity="1" d="M 572.382812 616.859375 L 644.886719 446.058594 L 644.804688 446.03125 C 649.128906 435.839844 657.527344 428.621094 667.296875 425.46875 L 853.425781 352.140625 L 853.390625 352.050781 C 863.605469 347.921875 874.59375 348.730469 883.707031 353.359375 L 1067.710938 418.660156 L 1067.738281 418.578125 C 1086.359375 426.488281 1095.050781 447.988281 1087.148438 466.609375 C 1086.808594 467.398438 1086.460938 468.160156 1086.078125 468.910156 L 953.449219 781.351562 L 953.53125 781.390625 C 945.628906 800.011719 924.121094 808.699219 905.5 800.789062 C 904.722656 800.460938 903.960938 800.109375 903.214844 799.730469 L 590.761719 667.101562 L 590.726562 667.179688 C 572.105469 659.269531 563.414062 637.769531 571.320312 619.148438 C 571.652344 618.371094 572.007812 617.609375 572.382812 616.859375 "/>
<path fill-rule="nonzero" fill="rgb(78.514099%, 80.076599%, 90.234375%)" fill-opacity="1" d="M 551.582031 574.011719 L 624.082031 429.039062 L 624.003906 429.019531 C 628.328125 420.371094 636.722656 414.238281 646.492188 411.570312 L 845.824219 343.21875 L 845.785156 343.140625 C 856.003906 339.640625 866.992188 340.328125 876.105469 344.25 L 1046.910156 405.789062 L 1046.941406 405.71875 C 1065.558594 412.429688 1074.25 430.679688 1066.339844 446.488281 C 1066.011719 447.148438 1065.648438 447.800781 1065.28125 448.429688 L 932.648438 713.609375 L 932.730469 713.640625 C 924.824219 729.449219 903.320312 736.820312 884.699219 730.109375 C 883.917969 729.828125 883.160156 729.53125 882.414062 729.210938 L 569.957031 616.640625 L 569.925781 616.710938 C 551.304688 610 542.613281 591.75 550.519531 575.941406 C 550.847656 575.28125 551.203125 574.640625 551.582031 574.011719 "/>
<path fill-rule="nonzero" fill="rgb(78.514099%, 80.076599%, 90.234375%)" fill-opacity="1" d="M 708.296875 390.378906 L 776.167969 367.101562 L 908.542969 453.058594 L 911.144531 707.890625 L 701.820312 546.671875 C 701.820312 546.671875 706.332031 456.441406 708.296875 390.378906 "/>
<path fill="none" stroke-width="380.001" stroke-linecap="round" stroke-linejoin="round" stroke="rgb(47.459412%, 50.976562%, 72.851562%)" stroke-opacity="1" stroke-miterlimit="2.61313" d="M 9667.03125 13618.90625 C 10596.992188 13613.515625 11483.398438 13335.3125 12232.304688 12845.703125 C 13018.28125 12331.796875 13651.71875 11585.78125 14023.59375 10678.710938 C 14028.90625 10662.382812 14035.3125 10646.71875 14042.695312 10631.484375 C 14522.8125 9424.492188 14472.5 8136.835938 14001.796875 7027.96875 C 13530.78125 5918.203125 12639.414062 4987.304688 11438.085938 4494.84375 C 11421.992188 4489.609375 11406.40625 4483.28125 11391.289062 4475.976562 C 10184.296875 3995.859375 8896.640625 4046.09375 7787.734375 4516.835938 C 6677.265625 4988.203125 5745.820312 5880.46875 5253.671875 7082.96875 L 5253.789062 7083.046875 C 5251.328125 7090.273438 5248.710938 7097.382812 5245.898438 7104.375 L 5245.273438 7105.898438 L 5242.617188 7112.226562 L 5241.757812 7114.179688 L 5238.59375 7121.210938 L 5238.164062 7122.1875 L 5235.742188 7127.304688 C 4878.4375 8025.78125 4812.148438 8988.515625 5010.390625 9893.867188 C 5204.257812 10779.414062 5651.5625 11609.296875 6327.226562 12269.21875 L 5606.484375 12575.195312 C 4942.460938 11851.09375 4498.046875 10976.09375 4294.960938 10048.398438 C 4066.5625 9005.195312 4143.710938 7894.53125 4556.953125 6856.835938 L 4558.671875 6851.640625 L 4558.75 6851.367188 C 4561.132812 6844.179688 4563.789062 6837.03125 4566.640625 6829.921875 L 4567.539062 6830.273438 C 5133.75 5429.609375 6213.515625 4391.054688 7501.601562 3844.296875 C 8782.304688 3300.664062 10268.789062 3242.578125 11661.210938 3796.953125 C 11670.390625 3799.84375 11679.609375 3803.164062 11688.710938 3806.835938 L 11688.28125 3807.734375 C 13088.984375 4373.945312 14127.617188 5453.710938 14674.296875 6741.796875 C 15218.007812 8022.539062 15276.09375 9509.023438 14721.601562 10901.484375 C 14718.710938 10910.703125 14715.507812 10919.804688 14711.796875 10928.90625 L 14710.898438 10928.515625 C 14281.992188 11989.609375 13546.484375 12860.898438 12632.890625 13458.085938 C 11850.703125 13969.492188 10937.109375 14280.703125 9972.734375 14339.101562 Z M 9667.03125 13618.90625 " transform="matrix(0.1, 0, 0, -0.1, 0, 2000)"/>
<path fill="none" stroke-width="380.007" stroke-linecap="round" stroke-linejoin="round" stroke="rgb(47.459412%, 50.976562%, 72.851562%)" stroke-opacity="1" stroke-miterlimit="2.61313" d="M 5003.828125 13255.3125 L 5728.828125 14963.398438 L 5728.007812 14963.710938 C 5771.25 15065.585938 5855.234375 15137.695312 5952.929688 15169.296875 L 7814.21875 15902.617188 L 7813.867188 15903.515625 C 7916.054688 15944.804688 8025.9375 15936.71875 8117.03125 15890.390625 L 9957.03125 15237.382812 L 9957.382812 15238.203125 C 10143.59375 15159.101562 10230.507812 14944.101562 10151.40625 14757.8125 C 10148.085938 14750 10144.492188 14742.382812 10140.78125 14734.882812 L 8814.492188 11610.390625 L 8815.273438 11610.117188 C 8736.25 11423.90625 8521.171875 11336.992188 8334.960938 11416.015625 C 8327.1875 11419.296875 8319.570312 11422.890625 8312.148438 11426.71875 L 5187.578125 12753.007812 L 5187.226562 12752.1875 C 5001.015625 12831.210938 4914.140625 13046.289062 4993.164062 13232.5 C 4996.484375 13240.3125 5000.039062 13247.890625 5003.828125 13255.3125 Z M 5003.828125 13255.3125 " transform="matrix(0.1, 0, 0, -0.1, 0, 2000)"/>
<path fill="none" stroke-width="380.007" stroke-linecap="round" stroke-linejoin="round" stroke="rgb(47.459412%, 50.976562%, 72.851562%)" stroke-opacity="1" stroke-miterlimit="2.61313" d="M 4795.78125 13683.90625 L 5520.78125 15133.515625 L 5520 15133.789062 C 5563.242188 15220.3125 5647.226562 15281.484375 5744.921875 15308.28125 L 7738.203125 15991.796875 L 7737.851562 15992.5 C 7840.039062 16027.617188 7949.882812 16020.703125 8041.015625 15981.40625 L 9749.023438 15366.09375 L 9749.375 15366.796875 C 9935.585938 15299.6875 10022.5 15117.109375 9943.398438 14959.101562 C 9940.078125 14952.5 9936.523438 14946.015625 9932.734375 14939.6875 L 8606.445312 12287.890625 L 8607.265625 12287.617188 C 8528.242188 12129.492188 8313.164062 12055.78125 8126.953125 12122.890625 C 8119.140625 12125.703125 8111.5625 12128.710938 8104.101562 12131.914062 L 4979.53125 13257.617188 L 4979.21875 13256.914062 C 4793.007812 13323.984375 4706.09375 13506.484375 4785.15625 13664.492188 C 4788.476562 13671.09375 4792.03125 13677.617188 4795.78125 13683.90625 Z M 4795.78125 13683.90625 " transform="matrix(0.1, 0, 0, -0.1, 0, 2000)"/>
<path fill="none" stroke-width="380.007" stroke-linecap="round" stroke-linejoin="round" stroke="rgb(47.459412%, 50.976562%, 72.851562%)" stroke-opacity="1" stroke-miterlimit="2.61313" d="M 6362.96875 15520.195312 L 7041.640625 15752.890625 L 8365.390625 14893.398438 L 8391.40625 12345.117188 L 6298.203125 13957.304688 C 6298.203125 13957.304688 6343.28125 14859.492188 6362.96875 15520.195312 Z M 6362.96875 15520.195312 " transform="matrix(0.1, 0, 0, -0.1, 0, 2000)"/>
</svg>
